<svg width="196" height="124" viewBox="0 0 196 124" fill="none" xmlns="http://www.w3.org/2000/svg">
<rect x="0.5" y="0.5" width="195" height="123" rx="11.5" fill="white"/>
<rect x="0.5" y="0.5" width="195" height="123" rx="11.5" stroke="#E3E3E3"/>
<text x="50%" y="32" text-anchor="middle" font-family="Arial, sans-serif" font-size="15" font-weight="bold" fill="black">Accuracy</text>
<path d="M19.756 55.192C19.108 55.192 18.536 55.096 18.04 54.904C17.544 54.712 17.156 54.428 16.876 54.052C16.604 53.676 16.468 53.216 16.468 52.672C16.468 52.048 16.656 51.532 17.032 51.124C17.408 50.716 17.912 50.444 18.544 50.308L18.568 50.548C18.056 50.428 17.644 50.208 17.332 49.888C17.028 49.568 16.876 49.148 16.876 48.628C16.876 48.172 16.992 47.768 17.224 47.416C17.456 47.064 17.784 46.788 18.208 46.588C18.64 46.388 19.156 46.288 19.756 46.288C20.348 46.288 20.86 46.388 21.292 46.588C21.724 46.788 22.052 47.064 22.276 47.416C22.508 47.768 22.624 48.172 22.624 48.628C22.624 49.148 22.472 49.568 22.168 49.888C21.864 50.2 21.452 50.42 20.932 50.548L20.956 50.308C21.596 50.444 22.104 50.716 22.48 51.124C22.856 51.532 23.044 52.048 23.044 52.672C23.044 53.216 22.904 53.676 22.624 54.052C22.352 54.428 21.968 54.712 21.472 54.904C20.976 55.096 20.404 55.192 19.756 55.192ZM19.756 54.004C20.348 54.004 20.816 53.884 21.16 53.644C21.512 53.396 21.688 53.028 21.688 52.54C21.688 52.076 21.528 51.704 21.208 51.424C20.896 51.144 20.412 51.004 19.756 51.004C19.1 51.004 18.612 51.144 18.292 51.424C17.972 51.704 17.812 52.076 17.812 52.54C17.812 53.028 17.988 53.396 18.34 53.644C18.692 53.884 19.164 54.004 19.756 54.004ZM19.756 49.936C20.244 49.936 20.62 49.836 20.884 49.636C21.156 49.428 21.292 49.112 21.292 48.688C21.292 48.32 21.16 48.024 20.896 47.8C20.64 47.576 20.26 47.464 19.756 47.464C19.252 47.464 18.868 47.576 18.604 47.8C18.34 48.024 18.208 48.32 18.208 48.688C18.208 49.112 18.344 49.428 18.616 49.636C18.888 49.836 19.268 49.936 19.756 49.936ZM27.184 55.192C26.552 55.192 26.012 55.092 25.564 54.892C25.116 54.684 24.764 54.396 24.508 54.028C24.252 53.66 24.104 53.236 24.064 52.756L25.396 52.672C25.46 53.12 25.648 53.456 25.96 53.68C26.28 53.896 26.688 54.004 27.184 54.004C27.744 54.004 28.184 53.848 28.504 53.536C28.832 53.224 28.996 52.788 28.996 52.228C28.996 51.86 28.92 51.544 28.768 51.28C28.624 51.008 28.416 50.8 28.144 50.656C27.872 50.504 27.548 50.428 27.172 50.428C26.796 50.428 26.46 50.508 26.164 50.668C25.868 50.828 25.656 51.048 25.528 51.328H24.184L24.76 46.48H29.752V47.668H25.912L25.552 50.584L25.348 50.404C25.484 50.164 25.656 49.968 25.864 49.816C26.072 49.656 26.312 49.536 26.584 49.456C26.864 49.368 27.16 49.324 27.472 49.324C28.048 49.324 28.548 49.448 28.972 49.696C29.404 49.944 29.74 50.288 29.98 50.728C30.22 51.168 30.34 51.668 30.34 52.228C30.34 52.812 30.208 53.328 29.944 53.776C29.68 54.224 29.312 54.572 28.84 54.82C28.368 55.068 27.816 55.192 27.184 55.192ZM33.2995 50.608C32.7475 50.608 32.2915 50.428 31.9315 50.068C31.5795 49.708 31.4035 49.184 31.4035 48.496C31.4035 47.8 31.5795 47.276 31.9315 46.924C32.2915 46.564 32.7475 46.384 33.2995 46.384C33.8515 46.384 34.3035 46.564 34.6555 46.924C35.0075 47.276 35.1835 47.8 35.1835 48.496C35.1835 49.184 35.0075 49.708 34.6555 50.068C34.3035 50.428 33.8515 50.608 33.2995 50.608ZM33.2995 49.804C33.6035 49.804 33.8315 49.692 33.9835 49.468C34.1355 49.244 34.2115 48.92 34.2115 48.496C34.2115 48.072 34.1355 47.748 33.9835 47.524C33.8315 47.3 33.6035 47.188 33.2995 47.188C33.0035 47.188 32.7755 47.3 32.6155 47.524C32.4635 47.748 32.3875 48.072 32.3875 48.496C32.3875 48.92 32.4635 49.244 32.6155 49.468C32.7755 49.692 33.0035 49.804 33.2995 49.804ZM38.2195 55.096C37.6755 55.096 37.2235 54.916 36.8635 54.556C36.5035 54.196 36.3235 53.672 36.3235 52.984C36.3235 52.288 36.5035 51.764 36.8635 51.412C37.2235 51.052 37.6755 50.872 38.2195 50.872C38.7795 50.872 39.2355 51.052 39.5875 51.412C39.9395 51.764 40.1155 52.288 40.1155 52.984C40.1155 53.672 39.9395 54.196 39.5875 54.556C39.2355 54.916 38.7795 55.096 38.2195 55.096ZM38.2195 54.292C38.5235 54.292 38.7515 54.18 38.9035 53.956C39.0555 53.732 39.1315 53.408 39.1315 52.984C39.1315 52.56 39.0555 52.236 38.9035 52.012C38.7515 51.788 38.5235 51.676 38.2195 51.676C37.9235 51.676 37.6955 51.788 37.5355 52.012C37.3835 52.236 37.3075 52.56 37.3075 52.984C37.3075 53.408 37.3835 53.732 37.5355 53.956C37.6955 54.18 37.9235 54.292 38.2195 54.292ZM32.3515 55L38.1595 46.48H39.1675L33.3595 55H32.3515Z" fill="black"/>
<path d="M44.6975 45.9004V50.3004M44.6975 45.9004L46.5063 47.7861M44.6975 45.9004L42.8887 47.7861" stroke="#10B981" stroke-width="0.7" stroke-linecap="round" stroke-linejoin="round"/>
<path d="M16 104C20.8747 98.152 25.6471 86.4558 45.2484 86.4558C59.8726 86.4558 63.0064 83.8251 69.2739 82.0706C75.5414 80.3162 83.8981 79.439 94.3439 79.439C108.968 79.439 105.834 65.4037 136.127 67.1581C166.42 68.9125 173.732 54 180 54" stroke="#F48024"/>
<path d="M45.2484 86.4558C25.6471 86.4558 20.8747 98.152 16 104H180V54C173.732 54 166.42 68.9125 136.127 67.1581C105.834 65.4037 108.968 79.439 94.3439 79.439C83.8981 79.439 75.5414 80.3162 69.2739 82.0706C63.0064 83.8251 59.8726 86.4558 45.2484 86.4558Z" fill="url(#paint0_linear_880_2454)"/>
<defs>
<linearGradient id="paint0_linear_880_2454" x1="98" y1="54" x2="98" y2="104" gradientUnits="userSpaceOnUse">
<stop stop-color="#F48024"/>
<stop offset="1" stop-color="#F48024" stop-opacity="0"/>
</linearGradient>
</defs>
</svg>
